<svg width="32" height="30" viewBox="0 0 32 30" fill="none" xmlns="http://www.w3.org/2000/svg">
<path fill-rule="evenodd" clip-rule="evenodd" d="M3.97067 10.1442L0 6.6535L11.6093 0.333496L16.064 3.46016L20.344 0.333496L32 6.51883L27.9813 10.0922L28 10.1028L32 15.5895L28 17.7682V23.2642L16 29.6668L4 23.2642V17.7775L5.33333 18.5028V22.4642L15.3347 27.8002V17.2815L12 22.1268L0 15.6028L3.97067 10.1442ZM16.668 17.2988V27.7988L26.6667 22.4642V18.4948L20 22.1268L16.668 17.2988ZM1.972 15.1575L11.5827 20.3815L14.0453 16.8028L4.404 11.8135L1.972 15.1575ZM17.9573 16.8202L20.416 20.3815L30.0267 15.1455L27.5973 11.8148L17.9573 16.8202ZM5.32133 10.7868L16.0013 4.88016L26.6667 10.7962L16.0387 16.3335L5.32133 10.7868ZM2.31333 6.91216L5.12133 9.38016L14.668 4.1095L11.52 1.90016L2.31333 6.91216ZM17.344 4.17616L26.7787 9.3775L29.68 6.7975L20.456 1.90283L17.344 4.17616Z" fill="white" stroke="white" stroke-width="0.5"/>
</svg>
