<svg width="85" height="16" viewBox="0 0 85 16" fill="none" xmlns="http://www.w3.org/2000/svg">
<path fill-rule="evenodd" clip-rule="evenodd" d="M0 0H85V1.3824H0V0ZM25.3348 8.4736C25.9642 8.4736 26.515 8.6272 26.987 8.9088C27.4591 9.1904 27.8525 9.6256 28.1148 10.1632C28.4033 10.7264 28.5344 11.4176 28.5344 12.2368C28.5344 13.056 28.4033 13.7472 28.1148 14.3104C27.8263 14.848 27.4329 15.2832 26.9608 15.5648C26.4625 15.8464 25.9118 16 25.3085 16C24.784 16 24.3119 15.872 23.9448 15.6672C23.5776 15.4624 23.3153 15.1552 23.1055 14.7712H23.0268L22.8957 15.8208H21.5582V5.4272H23.1318V9.5744C23.3153 9.2928 23.5776 9.0368 23.971 8.8064C24.3382 8.576 24.8102 8.4736 25.3348 8.4736ZM25.0201 14.5408C25.5708 14.5408 26.0429 14.3616 26.4101 13.9776C26.7772 13.5936 26.9608 13.0048 26.9608 12.288C26.9608 11.52 26.7772 10.9312 26.4101 10.5472C26.0429 10.1632 25.5708 9.9584 25.0201 9.9584C24.4693 9.9584 23.9972 10.1376 23.6301 10.5216C23.2629 10.88 23.0793 11.4688 23.0793 12.2368C23.0793 13.0048 23.2629 13.568 23.6301 13.952C23.9972 14.336 24.4693 14.5408 25.0201 14.5408ZM34.2518 7.1424C34.2518 6.5792 34.0944 6.1696 33.8059 5.8624C33.5174 5.5808 33.0716 5.4272 32.4946 5.4272H30.4489V6.7584H32.2323C32.547 6.7584 32.7044 6.912 32.7044 7.2448V14.5152H30.2391V15.8464H36.7433V14.5152H34.278V7.1424H34.2518ZM43.9556 9.54879H44.0342L44.1916 8.65279H45.5554V15.8208H44.2178L44.0867 14.7712H44.008C43.7982 15.1552 43.5359 15.4368 43.1688 15.6672C42.8016 15.8976 42.3295 16 41.7788 16C41.1493 16 40.5986 15.8464 40.1265 15.5648C39.6282 15.2832 39.261 14.8736 38.9725 14.3104C38.6841 13.7472 38.5529 13.056 38.5529 12.2368C38.5529 11.4176 38.6841 10.7264 38.9725 10.1632C39.261 9.62559 39.6282 9.19039 40.1265 8.90879C40.5986 8.62719 41.1493 8.47359 41.7525 8.47359C42.3295 8.47359 42.7754 8.57599 43.1163 8.75519C43.4573 8.95999 43.7458 9.21599 43.9556 9.54879ZM42.0935 14.5408C42.6442 14.5408 43.1163 14.336 43.4835 13.952C43.8507 13.568 44.0342 13.0048 44.0342 12.2112C44.0342 11.4432 43.8507 10.88 43.4835 10.496C43.1163 10.112 42.6442 9.93279 42.0935 9.93279C41.5427 9.93279 41.0707 10.1376 40.7035 10.5216C40.3363 10.9056 40.1527 11.4944 40.1527 12.2624C40.1527 13.0304 40.3363 13.5936 40.7035 13.9776C41.0707 14.3616 41.5427 14.5408 42.0935 14.5408ZM52.1382 8.47359C51.5875 8.47359 51.1154 8.60159 50.6958 8.83199C50.2761 9.06239 49.9877 9.36959 49.7778 9.70239H49.6992L49.568 8.62719H48.2043V15.7952H49.7778V12.0064C49.7778 11.3408 49.9614 10.8288 50.3286 10.4704C50.6958 10.112 51.1416 9.93279 51.6924 9.93279C52.2431 9.93279 52.6365 10.0864 52.8988 10.4192C53.1611 10.752 53.2922 11.2128 53.2922 11.8016V15.8208H54.8658V11.6224C54.8658 10.5984 54.6297 9.80479 54.1839 9.29279C53.7118 8.75519 53.0299 8.47359 52.1382 8.47359ZM63.8614 8.6528L60.793 11.8272V11.9552L64.2811 15.8208H62.3665L59.0882 12.1344V15.8208H57.5147V5.4272H59.0882V11.6736L61.8945 8.6528H63.8614Z" fill="white"/>
</svg>
