<svg width="27" height="29" viewBox="0 0 27 29" fill="none" xmlns="http://www.w3.org/2000/svg">
<path fill-rule="evenodd" clip-rule="evenodd" d="M0.875 0H26.5439V2.40322H0.875V0ZM14.8801 14.852C15.8668 14.8365 16.8386 15.0945 17.6876 15.5976C18.544 16.1276 19.2264 16.8969 19.6502 17.8106C20.1295 18.7898 20.3697 19.9956 20.3706 21.428C20.3715 22.8604 20.1314 24.0658 19.6502 25.044C19.2287 25.9579 18.5476 26.7275 17.6918 27.257C16.8432 27.7611 15.8713 28.0197 14.8843 28.004C13.9573 28.003 13.1777 27.8133 12.5454 27.4347C11.9174 27.0605 11.4123 26.5111 11.092 25.854H10.9396L10.7074 27.6976H8.40625V9.49023H11.0878V16.7754C11.3956 16.2681 11.8759 15.821 12.5287 15.4339C13.2455 15.0311 14.0581 14.83 14.8801 14.852ZM15.6213 25.2065C16.0333 25.0341 16.4038 24.776 16.7084 24.4495H16.714C17.3463 23.7846 17.6606 22.7858 17.6568 21.4532C17.6568 20.1056 17.3407 19.0938 16.7084 18.4177C16.4052 18.0886 16.0352 17.8282 15.6231 17.6537C15.2111 17.4793 14.7665 17.3949 14.3192 17.4063C13.8727 17.3942 13.4288 17.477 13.0167 17.6492C12.6046 17.8214 12.2337 18.079 11.9285 18.4051C11.2963 19.0719 10.9801 20.0795 10.9801 21.428C10.9801 22.7606 11.2963 23.7641 11.9285 24.4383C12.2319 24.7676 12.6021 25.0283 13.0144 25.2027C13.4268 25.3771 13.8716 25.4613 14.3192 25.4497C14.7656 25.4618 15.2094 25.3789 15.6213 25.2065Z" fill="white"/>
</svg>
