<svg width="32" height="28" viewBox="0 0 32 28" fill="none" xmlns="http://www.w3.org/2000/svg">
<path d="M14.6667 7.33184C17.86 8.3065 20.36 10.8078 21.332 13.9998C22.3093 10.8065 24.8093 8.30784 28 7.33317C24.8093 6.3585 22.3093 3.85984 21.332 0.666504C20.36 3.8585 17.86 6.35717 14.6667 7.33184ZM24 16.6652C25.916 17.2492 27.416 18.7505 27.9987 20.6665C28.5853 18.7505 30.0853 17.2505 32 16.6665C30.0853 16.0812 28.5853 14.5825 27.9987 12.6665C27.416 14.5812 25.916 16.0812 24 16.6652ZM16 23.9998C17.5973 24.4865 18.8467 25.7372 19.332 27.3332C19.82 25.7358 21.0707 24.4865 22.6667 23.9998C21.0707 23.5118 19.8213 22.2638 19.332 20.6665C18.8467 22.2625 17.5973 23.5118 16 23.9998ZM8 12.9705C8.696 13.8478 9.49067 14.6412 10.3667 15.3372C9.49067 16.0332 8.69733 16.8265 8.00267 17.7025C7.30667 16.8252 6.512 16.0318 5.63467 15.3345C6.512 14.6398 7.304 13.8465 8 12.9705ZM7.99867 7.33317C6.832 11.1638 3.828 14.1665 0 15.3345C3.83467 16.5078 6.832 19.5052 8.00533 23.3398C9.172 19.5078 12.176 16.5078 16 15.3345C12.176 14.1692 9.172 11.1652 7.99867 7.33317Z" fill="white"/>
</svg>
