<svg width="150" height="92" viewBox="0 0 150 92" fill="none" xmlns="http://www.w3.org/2000/svg">
<path d="M30.7599 18.0279C55.1955 -5.90189 94.8046 -5.90189 119.272 18.0279L122.212 20.9046C123.444 22.1058 123.444 24.0341 122.212 25.2353L112.159 35.0981C111.559 35.6987 110.547 35.6987 109.946 35.0981L105.9 31.1466C88.8616 14.4558 61.2017 14.4558 44.1632 31.1466L39.8324 35.3826C39.2318 35.9832 38.2202 35.9832 37.6196 35.3826L27.5356 25.5198C26.3027 24.3186 26.3027 22.3903 27.5356 21.1891L30.7599 18.0279ZM140.072 38.3856L149.018 47.142C150.251 48.3432 150.251 50.2715 149.018 51.4728L108.65 91.0186C107.418 92.2198 105.458 92.2198 104.225 91.0186L75.5533 62.9477C75.2371 62.6632 74.763 62.6632 74.4469 62.9477L45.8069 91.0186C44.5741 92.2198 42.6142 92.2198 41.3814 91.0186L0.982021 51.5044C-0.250823 50.3031 -0.250823 48.3748 0.982021 47.1736L9.92804 38.4173C11.1609 37.216 13.1208 37.216 14.3536 38.4173L43.0252 66.4882C43.3413 66.7727 43.8154 66.7727 44.1315 66.4882L72.7715 38.4173C74.0043 37.216 75.9642 37.216 77.1971 38.4173L105.869 66.4882C106.185 66.7727 106.659 66.7727 106.975 66.4882L135.646 38.4173C136.848 37.1844 138.839 37.1844 140.072 38.3856Z" fill="#3A99FB"/>
</svg>
