<svg width="108" height="108" viewBox="0 0 108 108" fill="none" xmlns="http://www.w3.org/2000/svg">
<path d="M53.9999 0.719971C24.5519 0.719971 0.719902 24.552 0.719902 54C0.719902 83.448 24.5519 107.28 53.9999 107.28C83.4479 107.28 107.28 83.448 107.28 54C107.28 24.552 83.4479 0.719971 53.9999 0.719971ZM53.9999 85.176C36.7919 85.176 22.8239 71.208 22.8239 54C22.8239 36.792 36.7919 22.824 53.9999 22.824C71.2079 22.824 85.1759 36.792 85.1759 54C85.1759 71.208 71.2079 85.176 53.9999 85.176Z" fill="url(#paint0_linear_2_1544)"/>
<path d="M61.5601 64.0075H46.4401C45.1441 64.0075 44.0641 62.9275 44.0641 61.6315V46.4395C44.0641 45.1435 45.1441 44.0635 46.4401 44.0635H61.6321C62.9281 44.0635 64.0081 45.1435 64.0081 46.4395V61.6315C64.0081 62.9275 62.9281 64.0075 61.5601 64.0075Z" fill="#2059EB"/>
<defs>
<linearGradient id="paint0_linear_2_1544" x1="53.9999" y1="107.28" x2="53.9999" y2="0.719971" gradientUnits="userSpaceOnUse">
<stop stop-color="#1447EA"/>
<stop offset="1" stop-color="#2B65FB"/>
</linearGradient>
</defs>
</svg>
