<svg width="101" height="105" viewBox="0 0 101 105" fill="none" xmlns="http://www.w3.org/2000/svg">
<g clip-path="url(#clip0_2_1314)">
<path d="M95.6443 72.6519L89.55 93.2576L77.5862 89.9856L95.6443 72.6519Z" fill="#E4761B" stroke="#E4761B" stroke-width="1.56104"/>
<path d="M77.5862 89.9857L89.1254 74.1754L95.6443 72.6519L77.5862 89.9857Z" fill="#E4761B" stroke="#E4761B" stroke-width="1.56104"/>
<path d="M86.6787 57.1276L95.6454 72.6631L89.1265 74.1866L86.6787 57.1276ZM86.6787 57.1276L92.4484 53.1313L95.6454 72.6631L86.6787 57.1276Z" fill="#F6851B" stroke="#F6851B" stroke-width="1.56104"/>
<path d="M79.3347 45.3768L95.9192 38.5831L95.095 42.3046L79.3347 45.3768ZM94.5704 46.7755L79.3347 45.3768L95.095 42.3046L94.5704 46.7755Z" fill="#763D16" stroke="#763D16" stroke-width="1.56104"/>
<path d="M94.5704 46.7755L92.4474 53.1195L79.3347 45.3768L94.5704 46.7755ZM97.8923 40.1567L95.0949 42.3046L95.9192 38.5831L97.8923 40.1567ZM94.5704 46.7755L95.0949 42.3046L97.3179 44.1529L94.5704 46.7755Z" fill="#763D16" stroke="#763D16" stroke-width="1.56104"/>
<path d="M64.7229 84.9745L68.869 86.2983L77.5859 89.9949L64.7229 84.9745Z" fill="#E2761B" stroke="#E2761B" stroke-width="1.56104"/>
<path d="M92.4489 53.1294L94.5719 46.7853L96.3952 48.184L92.4489 53.1294ZM92.4489 53.1294L75.24 47.4597L79.3362 45.3867L92.4489 53.1294Z" fill="#763D16" stroke="#763D16" stroke-width="1.56104"/>
<path d="M83.4323 25.9298L79.3362 45.3866L75.24 47.4596L83.4323 25.9298Z" fill="#763D16" stroke="#763D16" stroke-width="1.56104"/>
<path d="M95.9192 38.593L79.3347 45.3866L83.4309 25.9298L95.9192 38.593Z" fill="#763D16" stroke="#763D16" stroke-width="1.56104"/>
<path d="M83.4297 25.9314L100.739 23.9332L95.9181 38.5945L83.4297 25.9314Z" fill="#763D16" stroke="#763D16" stroke-width="1.56104"/>
<path d="M92.4489 53.1293L86.6793 57.1256L75.24 47.4596L92.4489 53.1293Z" fill="#F6851B" stroke="#F6851B" stroke-width="1.56104"/>
<path d="M99.9893 9.91913L100.739 23.931L83.4297 25.9291L99.9893 9.91913Z" fill="#763D16" stroke="#763D16" stroke-width="1.56104"/>
<path d="M99.9877 9.91913L65.3951 35.0706L64.9455 18.0115L99.9877 9.91913Z" fill="#E2761B" stroke="#E2761B" stroke-width="1.56104"/>
<path d="M39.2192 15.9597L64.9452 18.0078L65.3947 35.0668L39.2192 15.9597Z" fill="#F6851B" stroke="#F6851B" stroke-width="1.56104"/>
<path d="M75.2377 47.4596L65.3969 35.0712L83.43 25.9298L75.2377 47.4596Z" fill="#763D16" stroke="#763D16" stroke-width="1.56104"/>
<path d="M75.2379 47.4596L86.6772 57.1256L70.6172 58.8989L75.2379 47.4596Z" fill="#E4761B" stroke="#E4761B" stroke-width="1.56104"/>
<path d="M70.617 58.9011L65.3969 35.0734L75.2377 47.4618L70.617 58.9011Z" fill="#E4761B" stroke="#E4761B" stroke-width="1.56104"/>
<path d="M83.43 25.9291L65.3969 35.0706L99.9895 9.91913L83.43 25.9291Z" fill="#763D16" stroke="#763D16" stroke-width="1.56104"/>
<path d="M39.445 89.587L47.6124 98.1041L36.4978 87.9885L39.445 89.587Z" fill="#C0AD9E" stroke="#C0AD9E" stroke-width="1.56104"/>
<path d="M77.5862 89.9881L81.4576 75.2768L89.1254 74.1779L77.5862 89.9881Z" fill="#CD6116" stroke="#CD6116" stroke-width="1.56104"/>
<path d="M6.32687 48.5991L20.4636 33.738L8.15017 46.8258L6.32687 48.5991Z" fill="#E2761B" stroke="#E2761B" stroke-width="1.56104"/>
<path d="M89.1225 74.1802L81.4547 75.2792L86.6748 57.1212L89.1225 74.1802ZM65.3947 35.0668L51.6326 34.6172L39.2192 15.9597L65.3947 35.0668Z" fill="#F6851B" stroke="#F6851B" stroke-width="1.56104"/>
<path d="M86.6772 57.1245L81.457 75.2825L81.0324 66.4158L86.6772 57.1245Z" fill="#E4751F" stroke="#E4751F" stroke-width="1.56104"/>
<path d="M70.6172 58.8979L86.6772 57.1245L81.0324 66.4159L70.6172 58.8979Z" fill="#CD6116" stroke="#CD6116" stroke-width="1.56104"/>
<path d="M51.6309 34.6155L65.393 35.0651L70.6132 58.8927L51.6309 34.6155Z" fill="#F6851B" stroke="#F6851B" stroke-width="1.56104"/>
<path d="M51.6355 34.6222L14.4953 0.254395L39.2222 15.9647L51.6355 34.6222ZM39.1972 94.8159L6.92742 104.807L0.483459 80.2045L39.1972 94.8159Z" fill="#E4761B" stroke="#E4761B" stroke-width="1.56104"/>
<path d="M11.1211 54.7493L23.3097 45.1832L33.5251 47.556L11.1211 54.7493Z" fill="#763D16" stroke="#763D16" stroke-width="1.56104"/>
<path d="M33.5258 47.5624L23.3104 45.1896L28.7802 22.6107L33.5258 47.5624Z" fill="#763D16" stroke="#763D16" stroke-width="1.56104"/>
<path d="M8.15164 46.8317L23.3125 45.1832L11.1239 54.7493L8.15164 46.8317Z" fill="#763D16" stroke="#763D16" stroke-width="1.56104"/>
<path d="M81.0325 66.4101L74.7383 63.238L70.6172 58.8921L81.0325 66.4101Z" fill="#CD6116" stroke="#CD6116" stroke-width="1.56104"/>
<path d="M8.15117 46.8344L7.07718 41.1647L23.312 45.1859L8.15117 46.8344Z" fill="#763D16" stroke="#763D16" stroke-width="1.56104"/>
<path d="M73.4404 70.3846L74.7392 63.2413L81.0333 66.4134L73.4404 70.3846Z" fill="#233447" stroke="#233447" stroke-width="1.56104"/>
<path d="M81.4579 75.2745L73.4404 70.3791L81.0333 66.4078L81.4579 75.2745Z" fill="#F6851B" stroke="#F6851B" stroke-width="1.56104"/>
<path d="M23.3131 45.1896L7.07834 41.1684L5.75458 36.3978L23.3131 45.1896ZM28.783 22.6107L23.3131 45.1896L5.75458 36.3978L28.783 22.6107ZM28.783 22.6107L51.6366 34.6245L33.5286 47.5624L28.783 22.6107Z" fill="#763D16" stroke="#763D16" stroke-width="1.56104"/>
<path d="M33.5284 47.5534L51.6364 34.6155L59.7038 59.2674L33.5284 47.5534ZM59.7038 59.2674L34.6773 58.7429L33.5284 47.5534L59.7038 59.2674Z" fill="#E4761B" stroke="#E4761B" stroke-width="1.56104"/>
<path d="M11.1211 54.7466L33.5251 47.5534L34.674 58.7429L11.1211 54.7466ZM70.6154 58.8927L59.7006 59.2674L51.6332 34.6155L70.6154 58.8927Z" fill="#F6851B" stroke="#F6851B" stroke-width="1.56104"/>
<path d="M74.7383 63.238L73.4396 70.3813L70.6172 58.8921L74.7383 63.238Z" fill="#CD6116" stroke="#CD6116" stroke-width="1.56104"/>
<path d="M14.4976 0.254395L51.6378 34.6222L28.7842 22.6085L14.4976 0.254395Z" fill="#763D16" stroke="#763D16" stroke-width="1.56104"/>
<path d="M0.483459 80.1947L31.8041 78.8959L39.1972 94.806L0.483459 80.1947Z" fill="#E4761B" stroke="#E4761B" stroke-width="1.56104"/>
<path d="M39.1982 94.8177L31.8051 78.9076L47.1907 78.1583L39.1982 94.8177Z" fill="#CD6116" stroke="#CD6116" stroke-width="1.56104"/>
<path d="M73.4402 70.3818L81.4577 75.2773L85.8785 85.6925L73.4402 70.3818ZM34.6764 58.7427L0.483459 80.1977L11.1235 54.7465L34.6764 58.7427ZM31.8041 78.8989L0.483459 80.1977L34.6764 58.7427L31.8041 78.8989ZM70.6178 58.8926L72.6659 66.3356L62.7751 66.9101L70.6178 58.8926ZM62.7751 66.9101L59.703 59.2672L70.6178 58.8926L62.7751 66.9101Z" fill="#F6851B" stroke="#F6851B" stroke-width="1.56104"/>
<path d="M47.6173 98.1144L39.2002 94.8175L68.4728 99.7379L47.6173 98.1144Z" fill="#C0AD9E" stroke="#C0AD9E" stroke-width="1.56104"/>
<path d="M11.1224 54.754L6.32687 48.6098L8.15017 46.8364L11.1224 54.754Z" fill="#763D16" stroke="#763D16" stroke-width="1.56104"/>
<path d="M71.7947 96.0913L68.4728 99.7379L39.2002 94.8175L71.7947 96.0913Z" fill="#D7C1B3" stroke="#D7C1B3" stroke-width="1.56104"/>
<path d="M73.3682 87.1499L39.2002 94.8177L47.1927 78.1583L73.3682 87.1499Z" fill="#E4761B" stroke="#E4761B" stroke-width="1.56104"/>
<path d="M39.2002 94.8043L73.3682 87.1365L71.7947 96.0781L39.2002 94.8043Z" fill="#D7C1B3" stroke="#D7C1B3" stroke-width="1.56104"/>
<path d="M5.75307 36.3876L4.62912 17.1805L28.7815 22.6005L5.75307 36.3876ZM8.15082 46.8278L4.82893 43.4559L7.07683 41.1581L8.15082 46.8278Z" fill="#763D16" stroke="#763D16" stroke-width="1.56104"/>
<path d="M54.1106 64.2191L59.7054 59.2737L58.9061 71.3624L54.1106 64.2191Z" fill="#CD6116" stroke="#CD6116" stroke-width="1.56104"/>
<path d="M59.7028 59.2737L54.108 64.2191L45.9656 68.4401L59.7028 59.2737Z" fill="#CD6116" stroke="#CD6116" stroke-width="1.56104"/>
<path d="M85.8787 85.6989L84.3552 84.5749L73.4404 70.3882L85.8787 85.6989Z" fill="#F6851B" stroke="#F6851B" stroke-width="1.56104"/>
<path d="M45.9622 68.4304L34.6728 58.7395L59.6994 59.264L45.9622 68.4304Z" fill="#CD6116" stroke="#CD6116" stroke-width="1.56104"/>
<path d="M58.8987 71.3624L59.6979 59.2737L62.7701 66.9165L58.8987 71.3624Z" fill="#E4751F" stroke="#E4751F" stroke-width="1.56104"/>
<path d="M3.7327 38.2941L5.7558 36.3959L7.07956 41.1664L3.7327 38.2941Z" fill="#763D16" stroke="#763D16" stroke-width="1.56104"/>
<path d="M58.9035 71.3638L45.9656 68.4415L54.108 64.2205L58.9035 71.3638Z" fill="#233447" stroke="#233447" stroke-width="1.56104"/>
<path d="M28.7815 22.6085L4.62912 17.1885L14.4949 0.254395L28.7815 22.6085Z" fill="#763D16" stroke="#763D16" stroke-width="1.56104"/>
<path d="M68.4677 99.7347L69.8414 103.481L47.6122 98.1112L68.4677 99.7347Z" fill="#C0AD9E" stroke="#C0AD9E" stroke-width="1.56104"/>
<path d="M47.1895 78.1584L45.9656 68.4425L58.9035 71.3648L47.1895 78.1584Z" fill="#F6851B" stroke="#F6851B" stroke-width="1.56104"/>
<path d="M34.6728 58.7395L45.9622 68.4304L47.1861 78.1463L34.6728 58.7395Z" fill="#E4751F" stroke="#E4751F" stroke-width="1.56104"/>
<path d="M62.7761 66.9196L72.6669 66.3451L84.3559 84.578L62.7761 66.9196ZM34.6774 58.7522L47.1907 78.159L31.8051 78.9083L34.6774 58.7522Z" fill="#F6851B" stroke="#F6851B" stroke-width="1.56104"/>
<path d="M62.7701 66.9165L75.0586 85.624L58.8987 71.3623L62.7701 66.9165Z" fill="#E4751F" stroke="#E4751F" stroke-width="1.56104"/>
<path d="M58.8987 71.3547L75.0586 85.6164L73.3602 87.14L58.8987 71.3547Z" fill="#F6851B" stroke="#F6851B" stroke-width="1.56104"/>
<path d="M73.3681 87.1476L47.1926 78.156L58.9067 71.3623L73.3681 87.1476ZM84.3578 84.575L75.0665 85.624L62.778 66.9165L84.3578 84.575Z" fill="#F6851B" stroke="#F6851B" stroke-width="1.56104"/>
<path d="M86.8009 93.3677L82.8046 101.385L69.8417 103.483L86.8009 93.3677ZM69.8417 103.483L68.468 99.7367L71.7899 96.0901L69.8417 103.483Z" fill="#C0AD9E" stroke="#C0AD9E" stroke-width="1.56104"/>
<path d="M71.7961 96.0901L74.2438 95.116L69.8479 103.483L71.7961 96.0901ZM69.8479 103.483L74.2438 95.116L86.807 93.3677L69.8479 103.483Z" fill="#C0AD9E" stroke="#C0AD9E" stroke-width="1.56104"/>
<path d="M84.3511 84.5676L87.4232 86.4409L78.082 87.5648L84.3511 84.5676Z" fill="#161616" stroke="#161616" stroke-width="1.56104"/>
<path d="M78.0839 87.5648L75.0618 85.6166L84.353 84.5676L78.0839 87.5648ZM77.0099 89.0384L88.3743 87.6647L86.8007 93.3594L77.0099 89.0384Z" fill="#161616" stroke="#161616" stroke-width="1.56104"/>
<path d="M86.8046 93.366L74.2413 95.1143L77.0137 89.045L86.8046 93.366ZM74.2413 95.1143L71.7936 96.0884L73.3672 87.1468L74.2413 95.1143ZM73.3672 87.1468L75.0656 85.6232L78.0877 87.5714L73.3672 87.1468ZM87.429 86.4474L88.3781 87.6713L77.0137 89.045L87.429 86.4474Z" fill="#161616" stroke="#161616" stroke-width="1.56104"/>
<path d="M77.0108 89.0473L78.0848 87.5737L87.4261 86.4497L77.0108 89.0473ZM73.3643 87.149L77.0108 89.0473L74.2384 95.1166L73.3643 87.149Z" fill="#161616" stroke="#161616" stroke-width="1.56104"/>
<path d="M78.0848 87.5738L77.0108 89.0474L73.3643 87.1492L78.0848 87.5738Z" fill="#161616" stroke="#161616" stroke-width="1.56104"/>
</g>
<defs>
<clipPath id="clip0_2_1314">
<rect width="100.922" height="104.952" fill="white"/>
</clipPath>
</defs>
</svg>
